<svg width="83" height="83" viewBox="0 0 83 83" fill="none" xmlns="http://www.w3.org/2000/svg">
<g clip-path="url(#clip0_245_4)">
<circle cx="41.5" cy="41.5" r="40.5" stroke="#FF5959" stroke-width="2"/>
<path d="M18.6719 23.709H27.0359L27.0274 25.783H21.1709V28.8685H26.2454V30.9H21.1709V36H18.6719V23.709ZM34.2062 36.17C33.0445 36.17 32.0387 35.9178 31.1887 35.4135C30.3444 34.9035 29.6899 34.181 29.2252 33.246C28.7662 32.3053 28.5367 31.1833 28.5367 29.88C28.5367 28.571 28.769 27.4433 29.2337 26.497C29.704 25.5507 30.3642 24.8225 31.2142 24.3125C32.0642 23.7968 33.0615 23.539 34.2062 23.539C35.3452 23.539 36.3369 23.794 37.1812 24.304C38.0255 24.814 38.6772 25.5422 39.1362 26.4885C39.6009 27.4348 39.8332 28.5653 39.8332 29.88C39.8332 31.1777 39.6037 32.2968 39.1447 33.2375C38.6914 34.1782 38.0425 34.9035 37.1982 35.4135C36.3539 35.9178 35.3565 36.17 34.2062 36.17ZM34.2062 34.13C34.8069 34.13 35.3254 33.9883 35.7617 33.705C36.2037 33.416 36.5437 32.9627 36.7817 32.345C37.0197 31.7217 37.1387 30.9113 37.1387 29.914C37.1387 28.8883 37.0169 28.0582 36.7732 27.4235C36.5352 26.7888 36.1952 26.3242 35.7532 26.0295C35.3169 25.7292 34.8012 25.579 34.2062 25.579C33.6112 25.579 33.0927 25.7292 32.6507 26.0295C32.2087 26.3242 31.8659 26.7917 31.6222 27.432C31.3785 28.0667 31.2567 28.894 31.2567 29.914C31.2567 30.917 31.3785 31.7273 31.6222 32.345C31.8659 32.9627 32.2087 33.416 32.6507 33.705C33.0927 33.9883 33.6112 34.13 34.2062 34.13ZM47.0226 36.17C45.8609 36.17 44.8551 35.9178 44.0051 35.4135C43.1608 34.9035 42.5063 34.181 42.0416 33.246C41.5826 32.3053 41.3531 31.1833 41.3531 29.88C41.3531 28.571 41.5854 27.4433 42.0501 26.497C42.5204 25.5507 43.1806 24.8225 44.0306 24.3125C44.8806 23.7968 45.8779 23.539 47.0226 23.539C48.1616 23.539 49.1533 23.794 49.9976 24.304C50.8419 24.814 51.4936 25.5422 51.9526 26.4885C52.4173 27.4348 52.6496 28.5653 52.6496 29.88C52.6496 31.1777 52.4201 32.2968 51.9611 33.2375C51.5078 34.1782 50.8589 34.9035 50.0146 35.4135C49.1703 35.9178 48.1729 36.17 47.0226 36.17ZM47.0226 34.13C47.6233 34.13 48.1418 33.9883 48.5781 33.705C49.0201 33.416 49.3601 32.9627 49.5981 32.345C49.8361 31.7217 49.9551 30.9113 49.9551 29.914C49.9551 28.8883 49.8333 28.0582 49.5896 27.4235C49.3516 26.7888 49.0116 26.3242 48.5696 26.0295C48.1333 25.7292 47.6176 25.579 47.0226 25.579C46.4276 25.579 45.9091 25.7292 45.4671 26.0295C45.0251 26.3242 44.6823 26.7917 44.4386 27.432C44.1949 28.0667 44.0731 28.894 44.0731 29.914C44.0731 30.917 44.1949 31.7273 44.4386 32.345C44.6823 32.9627 45.0251 33.416 45.4671 33.705C45.9091 33.9883 46.4276 34.13 47.0226 34.13ZM54.8467 23.709C54.9091 23.709 55.0819 23.709 55.3652 23.709C55.6542 23.709 55.9914 23.709 56.3767 23.709C56.7677 23.709 57.1559 23.7118 57.5412 23.7175C57.9322 23.7175 58.2581 23.7203 58.5187 23.726C60.0091 23.76 61.2246 24.0263 62.1652 24.525C63.1059 25.0237 63.7944 25.7207 64.2307 26.616C64.6727 27.5113 64.8937 28.571 64.8937 29.795C64.8937 31.07 64.6614 32.1722 64.1967 33.1015C63.7321 34.0252 63.0209 34.7392 62.0632 35.2435C61.1112 35.7478 59.9014 36 58.4337 36H54.8467V23.709ZM57.3457 25.715V33.994H58.4847C59.1874 33.994 59.8249 33.858 60.3972 33.586C60.9752 33.314 61.4371 32.8692 61.7827 32.2515C62.1284 31.6338 62.3012 30.8093 62.3012 29.778C62.3012 28.8203 62.1482 28.044 61.8422 27.449C61.5362 26.8483 61.0999 26.4092 60.5332 26.1315C59.9666 25.8538 59.2951 25.715 58.5187 25.715H57.3457Z" fill="#FF5959"/>
<path d="M6.32291 41.155C6.37791 41.155 6.53041 41.155 6.78041 41.155C7.03541 41.155 7.33291 41.155 7.67291 41.155C8.01791 41.155 8.36041 41.1575 8.70041 41.1625C9.04541 41.1625 9.33291 41.165 9.56291 41.17C10.8779 41.2 11.9504 41.435 12.7804 41.875C13.6104 42.315 14.2179 42.93 14.6029 43.72C14.9929 44.51 15.1879 45.445 15.1879 46.525C15.1879 47.65 14.9829 48.6225 14.5729 49.4425C14.1629 50.2575 13.5354 50.8875 12.6904 51.3325C11.8504 51.7775 10.7829 52 9.48791 52H6.32291V41.155ZM8.52791 42.925V50.23H9.53291C10.1529 50.23 10.7154 50.11 11.2204 49.87C11.7304 49.63 12.1379 49.2375 12.4429 48.6925C12.7479 48.1475 12.9004 47.42 12.9004 46.51C12.9004 45.665 12.7654 44.98 12.4954 44.455C12.2254 43.925 11.8404 43.5375 11.3404 43.2925C10.8404 43.0475 10.2479 42.925 9.56291 42.925H8.52791ZM17.1188 52V41.155H24.5663L24.5588 43H19.3163V45.6325H23.8688V47.44H19.3013V50.1325L24.6413 50.14V52H17.1188ZM26.7282 41.155H28.9332V50.1475H33.6432V52H26.7282V41.155ZM35.3854 41.155H37.5679V52H35.3854V41.155ZM49.0072 41.155L45.2647 52H42.7822L39.0697 41.155H41.1622L44.0272 49.4575L46.9147 41.155H49.0072ZM50.5026 52V41.155H57.9501L57.9426 43H52.7001V45.6325H57.2526V47.44H52.6851V50.1325L58.0251 50.14V52H50.5026ZM68.527 52H66.2545L64.492 47.8225H62.2945V52H60.112V41.155H64.687C65.552 41.155 66.2595 41.2925 66.8095 41.5675C67.3595 41.8425 67.7645 42.225 68.0245 42.715C68.2845 43.2 68.4145 43.76 68.4145 44.395C68.4145 44.965 68.3245 45.4475 68.1445 45.8425C67.9695 46.2325 67.737 46.5575 67.447 46.8175C67.162 47.0775 66.8495 47.29 66.5095 47.455L68.527 52ZM64.297 46.135C64.882 46.135 65.3445 45.9775 65.6845 45.6625C66.0295 45.3475 66.202 44.9425 66.202 44.4475C66.202 43.9475 66.037 43.5525 65.707 43.2625C65.377 42.9725 64.9595 42.8275 64.4545 42.8275H62.2945V46.135H64.297ZM78.7426 41.155L74.9701 47.44V52H72.7801V47.4325L69.0151 41.155H71.3851L73.8826 45.55L76.3501 41.155H78.7426Z" fill="#FF5959"/>
</g>
<defs>
<clipPath id="clip0_245_4">
<rect width="83" height="83" fill="white"/>
</clipPath>
</defs>
</svg>
